{
	"asset":{
		"generator":"Khronos glTF Blender I/O v4.1.63",
		"version":"2.0"
	},
	"extensionsUsed":[
		"KHR_materials_emissive_strength"
	],
	"scene":0,
	"scenes":[
		{
			"name":"Scene",
			"nodes":[
				0,
				1,
				2,
				3,
				4,
				5,
				6
			]
		}
	],
	"nodes":[
		{
			"name":"cameraFocus",
			"translation":[
				0,
				1.100000023841858,
				0
			]
		},
		{
			"mesh":0,
			"name":"cameraTrack",
			"translation":[
				0,
				2.217927932739258,
				0
			]
		},
		{
			"mesh":1,
			"name":"base"
		},
		{
			"mesh":2,
			"name":"truck_all_1",
			"translation":[
				0.7947429418563843,
				1.027053713798523,
				0.9715625643730164
			]
		},
		{
			"mesh":3,
			"name":"truck_all_emmissive",
			"rotation":[
				-0.2509870231151581,
				0,
				0,
				0.9679904580116272
			],
			"translation":[
				0.6329051852226257,
				1.8035235404968262,
				1.7729483842849731
			]
		},
		{
			"mesh":4,
			"name":"props_all",
			"rotation":[
				0,
				0.41559579968452454,
				0,
				0.9095494151115417
			],
			"translation":[
				1.979552149772644,
				0.420098215341568,
				1.5681211948394775
			]
		},
		{
			"mesh":5,
			"name":"allGlasses",
			"translation":[
				0,
				2.8399999141693115,
				-0.6649999618530273
			]
		}
	],
	"animations":[
		{
			"channels":[
				{
					"sampler":0,
					"target":{
						"node":0,
						"path":"translation"
					}
				}
			],
			"name":"cameraFocusAction",
			"samplers":[
				{
					"input":26,
					"interpolation":"LINEAR",
					"output":27
				}
			]
		}
	],
	"materials":[
		{
			"doubleSided":true,
			"name":"base_mat",
			"pbrMetallicRoughness":{
				"metallicFactor":0,
				"roughnessFactor":0.5
			}
		},
		{
			"alphaMode":"BLEND",
			"doubleSided":true,
			"name":"truckBody_mat",
			"pbrMetallicRoughness":{
				"metallicFactor":0,
				"metallicRoughnessTexture":{
					"index":0
				}
			}
		},
		{
			"doubleSided":true,
			"emissiveFactor":[
				1,
				1,
				1
			],
			"extensions":{
				"KHR_materials_emissive_strength":{
					"emissiveStrength":4
				}
			},
			"name":"truck_emmisives_mat",
			"pbrMetallicRoughness":{
				"metallicFactor":0,
				"roughnessFactor":0.5
			}
		},
		{
			"doubleSided":true,
			"name":"props_mat",
			"pbrMetallicRoughness":{
				"metallicFactor":0,
				"metallicRoughnessTexture":{
					"index":1
				}
			}
		},
		{
			"alphaMode":"BLEND",
			"doubleSided":true,
			"name":"Basic Glass",
			"pbrMetallicRoughness":{}
		}
	],
	"meshes":[
		{
			"name":"Mesh",
			"primitives":[
				{
					"attributes":{
						"POSITION":0
					},
					"indices":1,
					"mode":1
				}
			]
		},
		{
			"name":"Cylinder.002",
			"primitives":[
				{
					"attributes":{
						"POSITION":2,
						"NORMAL":3,
						"TEXCOORD_0":4
					},
					"indices":5,
					"material":0
				}
			]
		},
		{
			"name":"Cube.031",
			"primitives":[
				{
					"attributes":{
						"POSITION":6,
						"NORMAL":7,
						"TEXCOORD_0":8
					},
					"indices":9,
					"material":1
				},
				{
					"attributes":{
						"POSITION":10
					},
					"indices":11,
					"material":1,
					"mode":1
				},
				{
					"attributes":{
						"POSITION":12
					},
					"material":1,
					"mode":0
				}
			]
		},
		{
			"name":"Cylinder.012",
			"primitives":[
				{
					"attributes":{
						"POSITION":13,
						"NORMAL":14,
						"TEXCOORD_0":15
					},
					"indices":16,
					"material":2
				}
			]
		},
		{
			"name":"BezierCurve",
			"primitives":[
				{
					"attributes":{
						"POSITION":17,
						"NORMAL":18,
						"TEXCOORD_0":19
					},
					"indices":20,
					"material":3
				},
				{
					"attributes":{
						"POSITION":21
					},
					"material":3,
					"mode":0
				}
			]
		},
		{
			"name":"Cube.024",
			"primitives":[
				{
					"attributes":{
						"POSITION":22,
						"NORMAL":23,
						"TEXCOORD_0":24
					},
					"indices":25,
					"material":4
				}
			]
		}
	],
	"textures":[
		{
			"sampler":0,
			"source":0
		},
		{
			"sampler":0,
			"source":0
		}
	],
	"images":[
		{
			"mimeType":"image/png",
			"name":"Image",
			"uri":"Image.png"
		}
	],
	"accessors":[
		{
			"bufferView":0,
			"componentType":5126,
			"count":256,
			"max":[
				7.236887454986572,
				0,
				7.236887454986572
			],
			"min":[
				-7.236887454986572,
				0,
				-7.236887454986572
			],
			"type":"VEC3"
		},
		{
			"bufferView":1,
			"componentType":5123,
			"count":512,
			"type":"SCALAR"
		},
		{
			"bufferView":2,
			"componentType":5126,
			"count":28159,
			"max":[
				3.3576855659484863,
				3.5441107749938965,
				3.3576855659484863
			],
			"min":[
				-3.3576855659484863,
				-0.1397828757762909,
				-3.3576855659484863
			],
			"type":"VEC3"
		},
		{
			"bufferView":3,
			"componentType":5126,
			"count":28159,
			"type":"VEC3"
		},
		{
			"bufferView":4,
			"componentType":5126,
			"count":28159,
			"type":"VEC2"
		},
		{
			"bufferView":5,
			"componentType":5123,
			"count":66180,
			"type":"SCALAR"
		},
		{
			"bufferView":6,
			"componentType":5126,
			"count":45426,
			"max":[
				0.8677521347999573,
				3.434134006500244,
				1.3871538639068604
			],
			"min":[
				-1.928475022315979,
				-1.0264045000076294,
				-3.474932909011841
			],
			"type":"VEC3"
		},
		{
			"bufferView":7,
			"componentType":5126,
			"count":45426,
			"type":"VEC3"
		},
		{
			"bufferView":8,
			"componentType":5126,
			"count":45426,
			"type":"VEC2"
		},
		{
			"bufferView":9,
			"componentType":5123,
			"count":170196,
			"type":"SCALAR"
		},
		{
			"bufferView":10,
			"componentType":5126,
			"count":8,
			"max":[
				-0.7761232852935791,
				0.9646037220954895,
				0.6543125510215759
			],
			"min":[
				-0.8226467370986938,
				0.9646037220954895,
				0.6094016432762146
			],
			"type":"VEC3"
		},
		{
			"bufferView":11,
			"componentType":5123,
			"count":16,
			"type":"SCALAR"
		},
		{
			"bufferView":12,
			"componentType":5126,
			"count":145,
			"max":[
				-2.384185791015625e-07,
				1.541983723640442,
				-1.5529804229736328
			],
			"min":[
				-1.8062868118286133,
				-0.1937050074338913,
				-2.607180595397949
			],
			"type":"VEC3"
		},
		{
			"bufferView":13,
			"componentType":5126,
			"count":10282,
			"max":[
				0.9663598537445068,
				2.0287227630615234,
				0.20461545884609222
			],
			"min":[
				-1.477647304534912,
				-1.513270378112793,
				-3.8505446910858154
			],
			"type":"VEC3"
		},
		{
			"bufferView":14,
			"componentType":5126,
			"count":10282,
			"type":"VEC3"
		},
		{
			"bufferView":15,
			"componentType":5126,
			"count":10282,
			"type":"VEC2"
		},
		{
			"bufferView":16,
			"componentType":5123,
			"count":33894,
			"type":"SCALAR"
		},
		{
			"bufferView":17,
			"componentType":5126,
			"count":31557,
			"max":[
				3.080240488052368,
				3.377331256866455,
				0.6169750690460205
			],
			"min":[
				-1.6670119762420654,
				-0.42009857296943665,
				-4.1615190505981445
			],
			"type":"VEC3"
		},
		{
			"bufferView":18,
			"componentType":5126,
			"count":31557,
			"type":"VEC3"
		},
		{
			"bufferView":19,
			"componentType":5126,
			"count":31557,
			"type":"VEC2"
		},
		{
			"bufferView":20,
			"componentType":5123,
			"count":115548,
			"type":"SCALAR"
		},
		{
			"bufferView":21,
			"componentType":5126,
			"count":5,
			"max":[
				0.36207395792007446,
				0.551101803779602,
				0.0549476258456707
			],
			"min":[
				0.0821293368935585,
				0.1670641005039215,
				-1.711806058883667
			],
			"type":"VEC3"
		},
		{
			"bufferView":22,
			"componentType":5126,
			"count":860,
			"max":[
				1.1422326564788818,
				0.5551645159721375,
				2.584634304046631
			],
			"min":[
				-0.8729922771453857,
				-1.5274426937103271,
				-1.6319057941436768
			],
			"type":"VEC3"
		},
		{
			"bufferView":23,
			"componentType":5126,
			"count":860,
			"type":"VEC3"
		},
		{
			"bufferView":24,
			"componentType":5126,
			"count":860,
			"type":"VEC2"
		},
		{
			"bufferView":25,
			"componentType":5123,
			"count":4092,
			"type":"SCALAR"
		},
		{
			"bufferView":26,
			"componentType":5126,
			"count":385,
			"max":[
				16
			],
			"min":[
				0
			],
			"type":"SCALAR"
		},
		{
			"bufferView":27,
			"componentType":5126,
			"count":385,
			"type":"VEC3"
		}
	],
	"bufferViews":[
		{
			"buffer":0,
			"byteLength":3072,
			"byteOffset":0,
			"target":34962
		},
		{
			"buffer":0,
			"byteLength":1024,
			"byteOffset":3072,
			"target":34963
		},
		{
			"buffer":0,
			"byteLength":337908,
			"byteOffset":4096,
			"target":34962
		},
		{
			"buffer":0,
			"byteLength":337908,
			"byteOffset":342004,
			"target":34962
		},
		{
			"buffer":0,
			"byteLength":225272,
			"byteOffset":679912,
			"target":34962
		},
		{
			"buffer":0,
			"byteLength":132360,
			"byteOffset":905184,
			"target":34963
		},
		{
			"buffer":0,
			"byteLength":545112,
			"byteOffset":1037544,
			"target":34962
		},
		{
			"buffer":0,
			"byteLength":545112,
			"byteOffset":1582656,
			"target":34962
		},
		{
			"buffer":0,
			"byteLength":363408,
			"byteOffset":2127768,
			"target":34962
		},
		{
			"buffer":0,
			"byteLength":340392,
			"byteOffset":2491176,
			"target":34963
		},
		{
			"buffer":0,
			"byteLength":96,
			"byteOffset":2831568,
			"target":34962
		},
		{
			"buffer":0,
			"byteLength":32,
			"byteOffset":2831664,
			"target":34963
		},
		{
			"buffer":0,
			"byteLength":1740,
			"byteOffset":2831696,
			"target":34962
		},
		{
			"buffer":0,
			"byteLength":123384,
			"byteOffset":2833436,
			"target":34962
		},
		{
			"buffer":0,
			"byteLength":123384,
			"byteOffset":2956820,
			"target":34962
		},
		{
			"buffer":0,
			"byteLength":82256,
			"byteOffset":3080204,
			"target":34962
		},
		{
			"buffer":0,
			"byteLength":67788,
			"byteOffset":3162460,
			"target":34963
		},
		{
			"buffer":0,
			"byteLength":378684,
			"byteOffset":3230248,
			"target":34962
		},
		{
			"buffer":0,
			"byteLength":378684,
			"byteOffset":3608932,
			"target":34962
		},
		{
			"buffer":0,
			"byteLength":252456,
			"byteOffset":3987616,
			"target":34962
		},
		{
			"buffer":0,
			"byteLength":231096,
			"byteOffset":4240072,
			"target":34963
		},
		{
			"buffer":0,
			"byteLength":60,
			"byteOffset":4471168,
			"target":34962
		},
		{
			"buffer":0,
			"byteLength":10320,
			"byteOffset":4471228,
			"target":34962
		},
		{
			"buffer":0,
			"byteLength":10320,
			"byteOffset":4481548,
			"target":34962
		},
		{
			"buffer":0,
			"byteLength":6880,
			"byteOffset":4491868,
			"target":34962
		},
		{
			"buffer":0,
			"byteLength":8184,
			"byteOffset":4498748,
			"target":34963
		},
		{
			"buffer":0,
			"byteLength":1540,
			"byteOffset":4506932
		},
		{
			"buffer":0,
			"byteLength":4620,
			"byteOffset":4508472
		}
	],
	"samplers":[
		{
			"magFilter":9729,
			"minFilter":9987
		}
	],
	"buffers":[
		{
			"byteLength":4513092,
			"uri":"Sketchfab_2023_05_08_14_14_00.bin"
		}
	]
}
